<svg width="9" height="9" viewBox="0 0 9 9" fill="none" xmlns="http://www.w3.org/2000/svg">
<g clip-path="url(#clip0_1890_3460)">
<path d="M8.8645 4.72162C8.8645 5.8148 8.43877 6.8426 7.6658 7.61557C6.89284 8.38854 5.86504 8.81427 4.77185 8.81427C3.67867 8.81427 2.65087 8.38854 1.8779 7.61557C1.10493 6.8426 0.679199 5.8148 0.679199 4.72162C0.679199 3.62843 1.10493 2.60063 1.8779 1.82767C2.65087 1.0547 3.67867 0.628967 4.77185 0.628967C5.86504 0.628967 6.89284 1.0547 7.6658 1.82767C8.43877 2.60063 8.8645 3.62843 8.8645 4.72162Z" fill="#FEE158"/>
<path d="M8.86462 4.72168C8.86462 5.81487 8.43889 6.84266 7.66593 7.61563C6.89296 8.3886 5.86516 8.81433 4.77197 8.81433V0.629028C5.86516 0.629028 6.89296 1.05476 7.66593 1.82773C8.43889 2.6007 8.86462 3.62849 8.86462 4.72168Z" fill="#FFB528"/>
<path d="M4.77184 7.95103C6.55536 7.95103 8.0012 6.50519 8.0012 4.72167C8.0012 2.93814 6.55536 1.49231 4.77184 1.49231C2.98831 1.49231 1.54248 2.93814 1.54248 4.72167C1.54248 6.50519 2.98831 7.95103 4.77184 7.95103Z" fill="#FFB528"/>
<path d="M8.00133 4.72167C8.00133 6.50229 6.5526 7.95103 4.77197 7.95103V1.49231C6.5526 1.49231 8.00133 2.94104 8.00133 4.72167Z" fill="#FE8C01"/>
<path d="M5.99889 4.67164C5.94518 4.61792 5.88667 4.57092 5.82448 4.53063C5.9714 4.36581 6.06108 4.1487 6.06108 3.91082C6.06108 3.6627 5.96388 3.42865 5.78755 3.25232C5.61105 3.07582 5.37716 2.97862 5.12889 2.97862H5.0117V2.51532H4.53209V2.97862H3.47632V3.45823H3.868V5.9848H3.47632V6.46441H4.53209V6.92771H5.0117V6.46441H5.25678C5.83599 6.46441 6.30728 5.99311 6.30728 5.41391C6.30728 5.13414 6.19777 4.87051 5.99889 4.67164ZM4.34761 3.45823H5.12889C5.24911 3.45823 5.36246 3.50555 5.44831 3.5914C5.53415 3.67725 5.58148 3.79076 5.58148 3.91082C5.58148 4.15798 5.38244 4.35941 5.13624 4.36325H4.34761V3.45823ZM5.25678 5.9848H4.34761V4.84318L4.7719 4.84302L5.25678 4.84286C5.40834 4.84286 5.55158 4.90249 5.65981 5.01088C5.76804 5.11911 5.82768 5.26219 5.82768 5.41391C5.82768 5.72869 5.57156 5.9848 5.25678 5.9848Z" fill="#FEE158"/>
<path d="M6.30736 5.41391C6.30736 5.99311 5.83606 6.46441 5.25686 6.46441H5.01178V6.92771H4.77197V5.9848H5.25686C5.57164 5.9848 5.82775 5.72869 5.82775 5.41391C5.82775 5.26219 5.76812 5.11911 5.65989 5.01088C5.55166 4.90249 5.40841 4.84286 5.25686 4.84286L4.77197 4.84302V4.36325H5.13631C5.38251 4.35941 5.58155 4.15798 5.58155 3.91082C5.58155 3.79076 5.53423 3.67725 5.44838 3.5914C5.36253 3.50555 5.24918 3.45823 5.12896 3.45823H4.77197V2.51532H5.01178V2.97862H5.12896C5.37724 2.97862 5.61113 3.07582 5.78762 3.25232C5.96396 3.42865 6.06116 3.6627 6.06116 3.91082C6.06116 4.1487 5.97147 4.36581 5.82455 4.53063C5.88674 4.57092 5.94525 4.61792 5.99897 4.67164C6.19785 4.87051 6.30736 5.13414 6.30736 5.41391Z" fill="#FFB528"/>
</g>
<defs>
<clipPath id="clip0_1890_3460">
<rect width="8.1853" height="8.1853" fill="white" transform="translate(0.679199 0.628967)"/>
</clipPath>
</defs>
</svg>
