<svg width="23" height="21" viewBox="0 0 23 21" fill="none" xmlns="http://www.w3.org/2000/svg">
<path d="M7.53587 12.0772H20.2949C21.1475 12.0772 21.8579 11.3668 21.8579 10.5143C21.8579 9.66171 21.1475 8.95129 20.2949 8.95129H7.53587C6.68332 8.95129 5.9729 9.66171 5.9729 10.5143C5.9731 11.3668 6.65495 12.0772 7.53587 12.0772Z" fill="black" stroke="black"/>
<path d="M13.0488 20H20.2666C21.1192 20 21.8296 19.2895 21.8296 18.437C21.8296 17.5844 21.1192 16.874 20.2666 16.874H13.0488C12.1963 16.874 11.4858 17.5844 11.4858 18.437C11.4858 19.3179 12.1963 20 13.0488 20Z" fill="black" stroke="black"/>
<path d="M2.56297 4.12593H20.295C21.1475 4.12593 21.8579 3.41552 21.8579 2.56297C21.8579 1.71042 21.1475 1 20.295 1L2.56297 1.0002C1.71042 1.0002 1 1.71061 1 2.56316C1.0002 3.41551 1.68205 4.12593 2.56297 4.12593V4.12593Z" fill="#C96BE4" stroke="#C96BE4"/>
</svg>
